<svg xmlns="http://www.w3.org/2000/svg" viewBox="0 0 512 512">
  <path d="M213.332 439.164V192.001c0-11.782-9.551-21.333-21.333-21.333-11.782 0-21.333 9.551-21.333 21.333v247.163l-48.915-48.915c-8.331-8.331-21.839-8.331-30.17 0-8.331 8.331-8.331 21.839 0 30.17l85.333 85.334c.497.497 1.02.967 1.564 1.413.246.202.506.378.759.567.304.228.601.463.918.675.303.203.618.379.929.565.286.171.566.351.861.509.317.17.644.314.968.466.307.145.609.298.924.429.315.13.637.236.957.35.337.121.669.25 1.013.354.32.097.645.168.969.249.351.089.698.187 1.056.258.375.074.753.118 1.13.172.311.044.618.104.933.135a21.468 21.468 0 0 0 4.211 0c.315-.031.621-.09.933-.135.377-.054.756-.098 1.13-.173.358-.071.704-.169 1.055-.258.324-.081.649-.152.969-.249.344-.104.677-.233 1.013-.354.32-.115.642-.22.957-.35.315-.13.616-.284.923-.429.324-.153.651-.297.969-.467.294-.158.573-.337.859-.508.312-.186.627-.362.931-.565.316-.211.612-.446.916-.673.254-.19.514-.366.761-.569.54-.443 1.059-.91 1.552-1.403l.011-.01 85.333-85.333c8.331-8.331 8.331-21.839 0-30.17-8.331-8.331-21.839-8.331-30.17 0l-48.916 48.915zM333.521 4.837c-.248-.204-.509-.38-.764-.571-.302-.226-.598-.461-.913-.671-.304-.204-.62-.38-.932-.566-.285-.17-.564-.349-.857-.506-.318-.17-.646-.315-.971-.468-.306-.145-.607-.297-.921-.428-.315-.13-.637-.236-.957-.35-.337-.121-.669-.25-1.013-.354-.32-.097-.646-.168-.969-.249-.351-.089-.698-.187-1.055-.258-.375-.074-.753-.118-1.13-.173-.311-.044-.617-.104-.933-.135a21.468 21.468 0 0 0-4.211 0c-.315.031-.621.09-.933.135-.377.054-.756.098-1.13.173-.358.071-.704.169-1.055.258-.324.081-.649.152-.969.249-.344.104-.677.233-1.013.354-.32.115-.642.22-.957.35-.314.13-.615.283-.921.428-.325.153-.653.297-.971.468-.293.157-.572.336-.857.506-.312.186-.628.363-.932.566-.315.211-.611.445-.913.671-.255.191-.516.368-.764.571a21.366 21.366 0 0 0-1.54 1.392l-.023.021-85.333 85.333c-8.331 8.331-8.331 21.839 0 30.17s21.839 8.331 30.17 0l48.915-48.915v247.163c0 11.782 9.551 21.333 21.333 21.333s21.333-9.551 21.333-21.333V72.838l48.915 48.915c8.331 8.331 21.839 8.331 30.17 0s8.331-21.839 0-30.17L335.087 6.25l-.023-.021a22.07 22.07 0 0 0-1.543-1.392z"/>
  <g transform="rotate(-90 256 256.001)"/>
  <g transform="rotate(-90 256 256.001)"/>
  <g transform="rotate(-90 256 256.001)"/>
  <g transform="rotate(-90 256 256.001)"/>
  <g transform="rotate(-90 256 256.001)"/>
  <g transform="rotate(-90 256 256.001)"/>
  <g transform="rotate(-90 256 256.001)"/>
  <g transform="rotate(-90 256 256.001)"/>
  <g transform="rotate(-90 256 256.001)"/>
  <g transform="rotate(-90 256 256.001)"/>
  <g transform="rotate(-90 256 256.001)"/>
  <g transform="rotate(-90 256 256.001)"/>
  <g transform="rotate(-90 256 256.001)"/>
  <g transform="rotate(-90 256 256.001)"/>
  <g transform="rotate(-90 256 256.001)"/>
</svg>
